<?xml version="1.0" encoding="UTF-8"?>
<!DOCTYPE svg PUBLIC "-//W3C//DTD SVG 1.1//EN" "http://www.w3.org/Graphics/SVG/1.1/DTD/svg11.dtd">
<!-- Creator: CorelDRAW 2020 (64-Bit) -->
<svg xmlns="http://www.w3.org/2000/svg" xml:space="preserve" width="374.07mm" height="106.481mm" version="1.1" style="shape-rendering:geometricPrecision; text-rendering:geometricPrecision; image-rendering:optimizeQuality; fill-rule:evenodd; clip-rule:evenodd"
viewBox="0 0 30205.64 8598.17"
 xmlns:xlink="http://www.w3.org/1999/xlink"
 xmlns:xodm="http://www.corel.com/coreldraw/odm/2003">
 <defs>
  <style type="text/css">
   <![CDATA[
    .fil0 {fill:#00282F}
    .fil1 {fill:#00B533}
   ]]>
  </style>
 </defs>
 <g id="Слой_x0020_1">
  <metadata id="CorelCorpID_0Corel-Layer"/>
  <path class="fil0" d="M15414.6 2588.58l251.1 0c246.23,0 391.45,-127.86 391.45,-366.2 0,-236.93 -145.22,-364.79 -388.26,-364.79l-254.29 0 0 730.99zm407.4 -1174.46l0 0c489.45,0 820.92,317.12 820.92,806.74 0,486.17 -348.83,803.29 -855.56,803.29l-372.76 0 0 667.81 -579.21 0 0 -2277.84 986.61 0z"/>
  <path class="fil0" d="M17455.25 3224.76l269.81 0c377.36,0 579.56,-228.95 579.56,-683.67 0,-427.6 -213.09,-659.84 -579.56,-659.84l-269.81 0 0 1343.51zm345.64 -1810.81l0 0c688.37,0 1092.5,399.43 1092.5,1125.72 0,727.71 -405.63,1152.39 -1092.5,1152.39l-924.93 0 0 -2278.11 924.93 0z"/>
  <path class="fil0" d="M19705.8 2588.58l250.93 0c246.32,0 391.54,-127.86 391.54,-366.2 0,-236.93 -145.23,-364.79 -388.26,-364.79l-254.21 0 0 730.99zm407.32 -1174.46l0 0c489.45,0 820.91,317.12 820.91,806.74 0,486.17 -348.83,803.29 -855.56,803.29l-372.67 0 0 667.73 -579.29 0 0 -2277.76 986.61 0z"/>
  <path class="fil0" d="M15732.9 6227.56l519.31 0 -252.52 -877.63 -12.58 0 -254.2 877.63zm632.99 416.79l0 0 -744.99 0 -145.22 500.53 -590.47 0 765.63 -2278.11 708.66 0 765.63 2278.11 -615.45 0 -143.81 -500.53z"/>
  <path class="fil0" d="M17042.57 6004.99c0,-743.57 427.96,-1177.73 1106.67,-1177.73 576.29,0 1013.37,370.99 1030.65,909.44l-557.24 0c-28.17,-268.38 -219.3,-445.33 -473.41,-445.33 -315.69,0 -516.21,270.16 -516.21,712.2 0,446.75 199,716.55 517.9,716.55 253.94,0 438.76,-167.29 475,-434.16l557.24 0c-26.76,541.37 -446.75,898.27 -1033.93,898.27 -681.99,0 -1106.67,-434.16 -1106.67,-1179.24z"/>
  <path class="fil0" d="M19975.37 6227.56l519.22 0 -252.43 -877.63 -12.59 0 -254.2 877.63zm633.08 416.79l0 0 -745.08 0 -145.14 500.53 -590.55 0 765.63 -2278.11 708.58 0 765.71 2278.11 -615.44 0 -143.72 -500.53z"/>
  <path class="fil0" d="M22084.07 6677.49l269.8 0c377.37,0 579.65,-228.95 579.65,-683.67 0,-427.6 -213.1,-659.84 -579.65,-659.84l-269.8 0 0 1343.51zm345.64 -1810.81l0 0c688.37,0 1092.5,399.43 1092.5,1125.72 0,727.71 -405.63,1152.39 -1092.5,1152.39l-924.94 0 0 -2278.11 924.94 0z"/>
  <polygon class="fil0" points="25239.18,7144.79 23677.88,7144.79 23677.88,4866.95 25239.18,4866.95 25239.18,5333.98 24257.09,5333.98 24257.09,5787.2 25180.62,5787.2 25180.62,6213.38 24257.09,6213.38 24257.09,6677.41 25239.18,6677.41 "/>
  <polygon class="fil0" points="27410.08,7144.79 27410.08,5722.51 27399,5722.51 26835.57,7144.79 26504.01,7144.79 25941.99,5722.51 25929.32,5722.51 25929.32,7144.79 25419.41,7144.79 25419.41,4866.95 26088.63,4866.95 26663.32,6355.33 26675.9,6355.33 27250.77,4866.95 27920.09,4866.95 27920.09,7144.79 "/>
  <polygon class="fil0" points="28841.67,7144.79 28841.67,6361.8 28057.16,4866.95 28679.16,4866.95 29131.93,5813.95 29143.18,5813.95 29594.62,4866.95 30205.64,4866.95 29420.87,6361.8 29420.87,7144.79 "/>
  <path class="fil1" d="M2885.23 1413.95c-1590.71,0 -2885.23,1294.25 -2885.23,2885.23 0,1590.71 1294.51,2885.05 2885.23,2885.05 1590.71,0 2885.05,-1294.33 2885.05,-2885.05 0,-1590.98 -1294.33,-2885.23 -2885.05,-2885.23z"/>
  <polygon class="fil0" points="8295.86,8598.17 6519.6,8598.17 8619.09,0 10395.34,0 "/>
  <polygon class="fil0" points="10880.63,8598.17 9104.37,8598.17 11203.77,0 12980.37,0 "/>
 </g>
</svg>
