<svg width="30" height="30" viewBox="0 0 30 30" fill="none" xmlns="http://www.w3.org/2000/svg">
<path fill-rule="evenodd" clip-rule="evenodd" d="M0 15C0 23.2845 6.7155 30 15 30C23.2845 30 30 23.2845 30 15C30 6.7155 23.2845 0 15 0C6.7155 0 0 6.7155 0 15ZM14.7 10.875C14.7 12.739 13.189 14.25 11.325 14.25C9.46104 14.25 7.95 12.739 7.95 10.875C7.95 9.01104 9.46104 7.5 11.325 7.5C13.189 7.5 14.7 9.01104 14.7 10.875ZM12 26.622V21.6C12 19.6755 13.4925 18.162 15.7005 17.298C14.2765 16.7684 12.7692 16.4981 11.25 16.5C8.415 16.5 5.796 17.4255 3.6795 18.99C5.01211 22.7588 8.13039 25.6191 12 26.622ZM25.32 21.129C24.7275 20.3295 22.755 19.5 20.25 19.5C17.241 19.5 15 20.6955 15 21.6V27C19.2353 27.0024 23.1579 24.7708 25.32 21.129ZM20.25 15.75C21.9069 15.75 23.25 14.4069 23.25 12.75C23.25 11.0931 21.9069 9.75 20.25 9.75C18.5931 9.75 17.25 11.0931 17.25 12.75C17.25 14.4069 18.5931 15.75 20.25 15.75Z" fill="#00B533"/>
</svg>
